<svg width="75" height="75" viewBox="0 0 75 75" fill="none" xmlns="http://www.w3.org/2000/svg">
<g clip-path="url(#clip0_1_225)">
<mask id="mask0_1_225" style="mask-type:alpha" maskUnits="userSpaceOnUse" x="1" y="1" width="73" height="73">
<path d="M73.3281 1.6875H1.32812V73.6875H73.3281V1.6875Z" fill="white"/>
</mask>
<g mask="url(#mask0_1_225)">
<path d="M73.3281 1.6875H1.32812V73.6875H73.3281V1.6875Z" fill="white"/>
<path d="M32.2314 35.5509C32.2199 35.5856 32.1976 35.6158 32.1679 35.6371C32.1381 35.6585 32.1024 35.6699 32.0658 35.6697H25.2249L30.7671 39.6414C30.795 39.6619 30.8284 39.6734 30.8629 39.6746C30.8974 39.6757 30.9315 39.6663 30.9606 39.6477C32.4933 38.7072 33.8343 38.0547 36.6846 37.3185C36.6846 37.3185 32.3106 40.5504 29.4477 44.172C29.3843 44.2503 29.3361 44.3397 29.3055 44.4357L28.7097 46.2465L34.2447 42.2793C34.2742 42.2573 34.3101 42.2454 34.3469 42.2454C34.3837 42.2454 34.4195 42.2573 34.449 42.2793L39.984 46.2465L37.8699 39.8259C37.8584 39.7916 37.8583 39.7544 37.8696 39.72C37.881 39.6856 37.9032 39.6558 37.9329 39.6351L43.4679 35.6679H36.6279C36.5913 35.6681 36.5556 35.6567 36.5259 35.6353C36.4961 35.614 36.4739 35.5838 36.4623 35.5491L34.3482 29.1294L32.2314 35.5509Z" fill="url(#paint0_linear_1_225)"/>
<path d="M67.9281 37.0206H63.6144V32.7645H61.3257V37.0206H57.0147V39.213H61.3257V43.4682H63.6144V39.213H67.9281V37.0206ZM49.2963 34.0056C50.415 34.0056 51.1296 34.5789 51.1296 35.5275C51.1296 36.5193 50.415 37.2258 49.2963 37.2258H47.5071V34.0065H49.2954L49.2963 34.0056ZM50.7039 39.4749C52.6254 39.2328 54.2139 37.6002 54.2139 35.5275C54.2139 32.8374 52.3581 31.3605 49.3629 31.3605H44.4669V44.9019H47.508V39.5415L51.1512 44.901H54.6828L50.7039 39.4749ZM26.3418 31.3578H17.2878V34.0929H20.2623V44.9001H23.37V34.0929H26.3436V31.3578H26.3418ZM11.5692 36.3222C10.698 35.9244 10.3623 35.5059 10.3623 34.9542C10.3623 34.3152 10.9212 33.7842 11.7483 33.8076C12.5079 33.8292 13.0668 34.2261 13.4916 35.1756L16.1061 34.0506C15.3915 32.2416 13.9371 31.1832 11.5908 31.1832C9.10953 31.1832 7.27623 32.7933 7.27623 34.9542C7.27623 36.432 7.99083 37.6452 9.82413 38.5488L11.6574 39.4533C12.6861 39.9609 13.1775 40.3362 13.1775 41.0859C13.1775 41.8806 12.5061 42.4539 11.6574 42.4539C10.7412 42.4539 9.91503 41.9463 9.53343 40.7997L6.76143 41.5935C7.38783 43.821 9.24363 45.1224 11.6574 45.1224C14.2728 45.1224 16.2852 43.4682 16.2852 41.0859C16.2852 39.2562 15.3015 38.0205 13.3107 37.116L11.5692 36.3213V36.3222Z" fill="#261E3C"/>
</g>
</g>
<rect x="0.828125" y="1.1875" width="73" height="73" rx="36.5" stroke="#EFEFEF"/>
<defs>
<linearGradient id="paint0_linear_1_225" x1="26.0556" y1="47.4174" x2="42.2673" y2="30.9861" gradientUnits="userSpaceOnUse">
<stop stop-color="#FA1660"/>
<stop offset="0.28" stop-color="#FA1660"/>
<stop offset="0.78" stop-color="#FF6E00"/>
<stop offset="1" stop-color="#FF6E00"/>
</linearGradient>
<clipPath id="clip0_1_225">
<rect width="72" height="72" fill="white" transform="translate(1.32812 1.6875)"/>
</clipPath>
</defs>
</svg>
