<svg width="1180" height="88" viewBox="0 0 1180 88" fill="none" xmlns="http://www.w3.org/2000/svg">
<rect width="1180" height="87" transform="translate(0 0.6875)" fill="url(#paint0_linear_1_199)"/>
<path d="M34.9985 48.5732C34.9985 48.2314 34.9456 47.9263 34.8398 47.6577C34.7422 47.381 34.5591 47.1328 34.2905 46.9131C34.0301 46.6852 33.6598 46.4655 33.1797 46.2539C32.7077 46.0342 32.0973 45.8063 31.3486 45.5703C30.5186 45.3099 29.7454 45.0169 29.0293 44.6914C28.3132 44.3659 27.6825 43.9875 27.1372 43.5562C26.6001 43.1248 26.181 42.6284 25.8799 42.0669C25.5788 41.4972 25.4282 40.8381 25.4282 40.0894C25.4282 39.3569 25.5828 38.6896 25.8921 38.0874C26.2095 37.4852 26.6571 36.9684 27.2349 36.5371C27.8127 36.0977 28.4922 35.7599 29.2734 35.5239C30.0628 35.2879 30.9336 35.1699 31.8857 35.1699C33.2041 35.1699 34.3434 35.41 35.3037 35.8901C36.2721 36.3703 37.0208 37.0213 37.5498 37.8433C38.0788 38.6652 38.3433 39.5889 38.3433 40.6143H34.9985C34.9985 40.0609 34.8805 39.5726 34.6445 39.1494C34.4167 38.7262 34.0667 38.3926 33.5947 38.1484C33.1309 37.9043 32.5449 37.7822 31.8369 37.7822C31.1533 37.7822 30.5837 37.884 30.1279 38.0874C29.6803 38.2909 29.3426 38.5675 29.1147 38.9175C28.895 39.2674 28.7852 39.658 28.7852 40.0894C28.7852 40.4149 28.8625 40.7078 29.0171 40.9683C29.1717 41.2205 29.4036 41.4606 29.7129 41.6885C30.0221 41.9082 30.4046 42.1157 30.8604 42.311C31.3242 42.4982 31.8613 42.6854 32.4717 42.8726C33.4482 43.1655 34.3027 43.491 35.0352 43.8491C35.7757 44.2072 36.3901 44.6141 36.8784 45.0698C37.3748 45.5256 37.7451 46.0382 37.9893 46.6079C38.2415 47.1776 38.3677 47.8245 38.3677 48.5488C38.3677 49.3138 38.2171 49.9974 37.916 50.5996C37.6149 51.2018 37.1836 51.7145 36.6221 52.1377C36.0605 52.5609 35.3851 52.8823 34.5957 53.1021C33.8145 53.3218 32.9396 53.4316 31.9712 53.4316C31.1086 53.4316 30.2541 53.3177 29.4077 53.0898C28.5695 52.8538 27.8086 52.5039 27.125 52.04C26.4414 51.568 25.8962 50.974 25.4893 50.2578C25.0824 49.5335 24.8789 48.6872 24.8789 47.7188H28.248C28.248 48.2803 28.3376 48.7604 28.5166 49.1592C28.7038 49.5498 28.9642 49.8713 29.2979 50.1235C29.6396 50.3677 30.0384 50.5467 30.4941 50.6606C30.9499 50.7746 31.4422 50.8315 31.9712 50.8315C32.6548 50.8315 33.2163 50.738 33.6558 50.5508C34.1034 50.3555 34.437 50.0869 34.6567 49.7451C34.8846 49.4033 34.9985 49.0127 34.9985 48.5732ZM48.5728 50.0503V39.9795H51.8198V53.1875H48.7681L48.5728 50.0503ZM48.9878 47.3159L49.9888 47.2915C49.9888 48.1785 49.8911 48.9964 49.6958 49.7451C49.5005 50.4938 49.1953 51.1449 48.7803 51.6982C48.3734 52.2435 47.8566 52.6707 47.23 52.98C46.6034 53.2811 45.8628 53.4316 45.0083 53.4316C44.3573 53.4316 43.7632 53.3421 43.2261 53.1631C42.689 52.9759 42.2251 52.687 41.8345 52.2964C41.452 51.8976 41.1549 51.389 40.9434 50.7705C40.7318 50.1439 40.626 49.3911 40.626 48.5122V39.9795H43.8486V48.5366C43.8486 48.9761 43.8975 49.3423 43.9951 49.6353C44.1009 49.9282 44.2433 50.1683 44.4224 50.3555C44.6095 50.5345 44.8252 50.6647 45.0693 50.7461C45.3216 50.8193 45.5902 50.856 45.875 50.856C46.6562 50.856 47.2707 50.7013 47.7183 50.3921C48.174 50.0747 48.4995 49.6515 48.6948 49.1226C48.8901 48.5854 48.9878 47.9832 48.9878 47.3159ZM61.9395 49.5742C61.9395 49.2975 61.8662 49.0493 61.7197 48.8296C61.5732 48.6099 61.2965 48.4105 60.8896 48.2314C60.4909 48.0443 59.9049 47.8693 59.1318 47.7065C58.4482 47.5601 57.8175 47.377 57.2397 47.1572C56.6619 46.9375 56.1655 46.673 55.7505 46.3638C55.3354 46.0464 55.0099 45.6761 54.7739 45.2529C54.5461 44.8216 54.4321 44.3252 54.4321 43.7637C54.4321 43.2184 54.5501 42.7057 54.7861 42.2256C55.0221 41.7373 55.3639 41.3101 55.8115 40.9438C56.2591 40.5695 56.8044 40.2765 57.4473 40.0649C58.0902 39.8452 58.8145 39.7354 59.6201 39.7354C60.7432 39.7354 61.7075 39.9185 62.5132 40.2847C63.327 40.6509 63.9495 41.1554 64.3809 41.7983C64.8122 42.4331 65.0278 43.1493 65.0278 43.9468H61.8052C61.8052 43.5968 61.7238 43.2795 61.561 42.9946C61.4064 42.7098 61.1663 42.4819 60.8408 42.311C60.5153 42.132 60.1043 42.0425 59.6079 42.0425C59.1603 42.0425 58.7819 42.1157 58.4727 42.2622C58.1715 42.4087 57.9437 42.5999 57.7891 42.8359C57.6344 43.0719 57.5571 43.3324 57.5571 43.6172C57.5571 43.8288 57.5978 44.02 57.6792 44.1909C57.7687 44.3537 57.9111 44.5042 58.1064 44.6426C58.3018 44.7809 58.5662 44.9071 58.8999 45.021C59.2417 45.1349 59.6608 45.2448 60.1572 45.3506C61.1419 45.5459 62.0005 45.8063 62.7329 46.1318C63.4735 46.4492 64.0513 46.8724 64.4663 47.4014C64.8813 47.9303 65.0889 48.6058 65.0889 49.4277C65.0889 50.0137 64.9627 50.5508 64.7104 51.0391C64.4582 51.5192 64.092 51.9383 63.6118 52.2964C63.1317 52.6545 62.5579 52.9352 61.8906 53.1387C61.2233 53.334 60.4705 53.4316 59.6323 53.4316C58.4198 53.4316 57.3944 53.216 56.5562 52.7847C55.7179 52.3452 55.0832 51.7918 54.6519 51.1245C54.2205 50.4491 54.0049 49.7492 54.0049 49.0249H57.0933C57.1177 49.5376 57.256 49.9486 57.5083 50.2578C57.7606 50.5671 58.078 50.7909 58.4604 50.9292C58.8511 51.0594 59.262 51.1245 59.6934 51.1245C60.1816 51.1245 60.5926 51.0594 60.9263 50.9292C61.2599 50.7909 61.5122 50.6077 61.6831 50.3799C61.854 50.1439 61.9395 49.8753 61.9395 49.5742ZM72.9624 50.8926C73.4181 50.8926 73.825 50.8031 74.1831 50.624C74.5412 50.445 74.826 50.1927 75.0376 49.8672C75.2573 49.5417 75.3753 49.1632 75.3916 48.7319H78.4312C78.4149 49.6271 78.1626 50.4287 77.6743 51.1367C77.186 51.8447 76.535 52.4062 75.7212 52.8213C74.9155 53.2282 74.0122 53.4316 73.0112 53.4316C71.994 53.4316 71.1069 53.2607 70.3501 52.9189C69.5933 52.5771 68.9626 52.1011 68.458 51.4907C67.9616 50.8804 67.5872 50.1724 67.335 49.3667C67.0908 48.561 66.9688 47.6984 66.9688 46.7788V46.3882C66.9688 45.4686 67.0908 44.606 67.335 43.8003C67.5872 42.9946 67.9616 42.2866 68.458 41.6763C68.9626 41.0659 69.5933 40.5898 70.3501 40.248C71.1069 39.9062 71.9899 39.7354 72.999 39.7354C74.0651 39.7354 75.001 39.9429 75.8066 40.3579C76.6204 40.7729 77.2552 41.3589 77.7109 42.1157C78.1748 42.8726 78.4149 43.7637 78.4312 44.7891H75.3916C75.3753 44.3171 75.2695 43.8939 75.0742 43.5195C74.8789 43.1452 74.6022 42.8441 74.2441 42.6162C73.8861 42.3883 73.4507 42.2744 72.938 42.2744C72.3927 42.2744 71.937 42.3883 71.5708 42.6162C71.2127 42.8441 70.932 43.1574 70.7285 43.5562C70.5332 43.9468 70.3949 44.3862 70.3135 44.8745C70.2402 45.3547 70.2036 45.8592 70.2036 46.3882V46.7788C70.2036 47.3159 70.2402 47.8286 70.3135 48.3169C70.3949 48.8052 70.5332 49.2446 70.7285 49.6353C70.932 50.0177 71.2127 50.3229 71.5708 50.5508C71.937 50.7786 72.4009 50.8926 72.9624 50.8926ZM83.8022 42.6772V53.1875H80.5796V39.9795H83.6313L83.8022 42.6772ZM87.8184 39.894L87.7695 42.897C87.5905 42.8644 87.387 42.84 87.1592 42.8237C86.9395 42.8075 86.7319 42.7993 86.5366 42.7993C86.0402 42.7993 85.6048 42.8685 85.2305 43.0068C84.8561 43.137 84.5428 43.3283 84.2905 43.5806C84.0464 43.8328 83.8592 44.1421 83.729 44.5083C83.5988 44.8664 83.5256 45.2733 83.5093 45.729L82.8135 45.6436C82.8135 44.8053 82.8989 44.0282 83.0698 43.312C83.2407 42.5959 83.4889 41.9692 83.8145 41.4321C84.14 40.895 84.5469 40.48 85.0352 40.187C85.5316 39.8859 86.1012 39.7354 86.7441 39.7354C86.9232 39.7354 87.1144 39.7516 87.3179 39.7842C87.5295 39.8086 87.6963 39.8452 87.8184 39.894ZM93.0674 39.9795V53.1875H89.8325V39.9795H93.0674ZM89.8936 38.2949L92.2861 34.584H95.8506L92.5181 38.2949H89.8936ZM96.2656 34.4375H99.5005V50.27L99.1831 53.1875H96.2656V34.4375ZM107.997 46.4492V46.7056C107.997 47.6903 107.887 48.5936 107.667 49.4155C107.455 50.2375 107.134 50.9495 106.703 51.5518C106.271 52.1458 105.734 52.6097 105.091 52.9434C104.457 53.2689 103.712 53.4316 102.857 53.4316C102.044 53.4316 101.336 53.2729 100.733 52.9556C100.139 52.6382 99.6388 52.1906 99.2319 51.6128C98.825 51.0269 98.4995 50.3392 98.2554 49.5498C98.0112 48.7523 97.8281 47.8815 97.7061 46.9375V46.2417C97.8281 45.2896 98.0112 44.4188 98.2554 43.6294C98.4995 42.84 98.825 42.1523 99.2319 41.5664C99.6388 40.9805 100.139 40.5288 100.733 40.2114C101.327 39.894 102.027 39.7354 102.833 39.7354C103.696 39.7354 104.448 39.9022 105.091 40.2358C105.742 40.5614 106.279 41.0252 106.703 41.6274C107.134 42.2215 107.455 42.9295 107.667 43.7515C107.887 44.5653 107.997 45.4645 107.997 46.4492ZM104.762 46.7056V46.4492C104.762 45.8877 104.717 45.3587 104.627 44.8623C104.538 44.3577 104.391 43.9142 104.188 43.5317C103.985 43.1493 103.708 42.8481 103.358 42.6284C103.008 42.4087 102.569 42.2988 102.04 42.2988C101.535 42.2988 101.104 42.3843 100.746 42.5552C100.396 42.7261 100.103 42.9621 99.8667 43.2632C99.6388 43.5643 99.4598 43.9183 99.3296 44.3252C99.2075 44.7321 99.1261 45.1715 99.0854 45.6436V47.5479C99.1424 48.1745 99.2767 48.7401 99.4883 49.2446C99.6999 49.741 100.013 50.1357 100.428 50.4287C100.851 50.7217 101.397 50.8682 102.064 50.8682C102.585 50.8682 103.02 50.7664 103.37 50.563C103.72 50.3514 103.997 50.0584 104.2 49.6841C104.404 49.3016 104.546 48.8581 104.627 48.3535C104.717 47.849 104.762 47.2996 104.762 46.7056ZM116.273 53.4316C115.272 53.4316 114.373 53.2689 113.575 52.9434C112.778 52.6178 112.098 52.1662 111.537 51.5884C110.983 51.0024 110.556 50.3229 110.255 49.5498C109.962 48.7686 109.815 47.9303 109.815 47.0352V46.5469C109.815 45.5296 109.962 44.606 110.255 43.7759C110.548 42.9377 110.963 42.2174 111.5 41.6152C112.037 41.013 112.68 40.5492 113.429 40.2236C114.177 39.8981 115.003 39.7354 115.907 39.7354C116.843 39.7354 117.669 39.894 118.385 40.2114C119.101 40.5207 119.699 40.9601 120.179 41.5298C120.659 42.0994 121.021 42.783 121.266 43.5806C121.51 44.37 121.632 45.2448 121.632 46.2051V47.5601H111.28V45.3384H118.458V45.0942C118.442 44.5815 118.344 44.1136 118.165 43.6904C117.986 43.2591 117.709 42.9173 117.335 42.665C116.961 42.4046 116.476 42.2744 115.882 42.2744C115.402 42.2744 114.983 42.3802 114.625 42.5918C114.275 42.7952 113.982 43.0882 113.746 43.4707C113.518 43.8451 113.347 44.2926 113.233 44.8135C113.119 45.3343 113.062 45.9121 113.062 46.5469V47.0352C113.062 47.5885 113.136 48.1012 113.282 48.5732C113.437 49.0452 113.661 49.4562 113.954 49.8062C114.255 50.1479 114.613 50.4165 115.028 50.6118C115.451 50.799 115.931 50.8926 116.468 50.8926C117.144 50.8926 117.754 50.7624 118.299 50.502C118.853 50.2334 119.333 49.8387 119.74 49.3179L121.363 51.0024C121.087 51.4093 120.712 51.8 120.24 52.1743C119.776 52.5487 119.215 52.8538 118.556 53.0898C117.896 53.3177 117.136 53.4316 116.273 53.4316ZM130.042 39.9795V42.2988H122.474V39.9795H130.042ZM124.5 36.7324H127.735V49.3789C127.735 49.7695 127.788 50.0706 127.894 50.2822C128 50.4938 128.159 50.6362 128.37 50.7095C128.582 50.7827 128.834 50.8193 129.127 50.8193C129.339 50.8193 129.534 50.8071 129.713 50.7827C129.892 50.7583 130.042 50.7339 130.165 50.7095L130.177 53.1265C129.908 53.216 129.603 53.2892 129.261 53.3462C128.928 53.4032 128.549 53.4316 128.126 53.4316C127.402 53.4316 126.767 53.3096 126.222 53.0654C125.676 52.8132 125.253 52.4103 124.952 51.8569C124.651 51.2954 124.5 50.5549 124.5 49.6353V36.7324ZM138.124 53.4316C137.123 53.4316 136.223 53.2689 135.426 52.9434C134.628 52.6178 133.949 52.1662 133.387 51.5884C132.834 51.0024 132.407 50.3229 132.105 49.5498C131.812 48.7686 131.666 47.9303 131.666 47.0352V46.5469C131.666 45.5296 131.812 44.606 132.105 43.7759C132.398 42.9377 132.813 42.2174 133.351 41.6152C133.888 41.013 134.531 40.5492 135.279 40.2236C136.028 39.8981 136.854 39.7354 137.757 39.7354C138.693 39.7354 139.519 39.894 140.235 40.2114C140.951 40.5207 141.55 40.9601 142.03 41.5298C142.51 42.0994 142.872 42.783 143.116 43.5806C143.36 44.37 143.482 45.2448 143.482 46.2051V47.5601H133.131V45.3384H140.309V45.0942C140.292 44.5815 140.195 44.1136 140.016 43.6904C139.837 43.2591 139.56 42.9173 139.186 42.665C138.811 42.4046 138.327 42.2744 137.733 42.2744C137.253 42.2744 136.834 42.3802 136.476 42.5918C136.126 42.7952 135.833 43.0882 135.597 43.4707C135.369 43.8451 135.198 44.2926 135.084 44.8135C134.97 45.3343 134.913 45.9121 134.913 46.5469V47.0352C134.913 47.5885 134.986 48.1012 135.133 48.5732C135.287 49.0452 135.511 49.4562 135.804 49.8062C136.105 50.1479 136.463 50.4165 136.878 50.6118C137.302 50.799 137.782 50.8926 138.319 50.8926C138.994 50.8926 139.605 50.7624 140.15 50.502C140.703 50.2334 141.183 49.8387 141.59 49.3179L143.214 51.0024C142.937 51.4093 142.563 51.8 142.091 52.1743C141.627 52.5487 141.065 52.8538 140.406 53.0898C139.747 53.3177 138.986 53.4316 138.124 53.4316ZM159.144 50.3799V44.2886C159.144 43.841 159.067 43.4544 158.912 43.1289C158.757 42.8034 158.521 42.5511 158.204 42.3721C157.887 42.193 157.484 42.1035 156.996 42.1035C156.564 42.1035 156.186 42.1768 155.86 42.3232C155.543 42.4697 155.299 42.6772 155.128 42.9458C154.957 43.2062 154.872 43.5073 154.872 43.8491H151.637C151.637 43.3039 151.767 42.7871 152.027 42.2988C152.288 41.8024 152.658 41.363 153.138 40.9805C153.626 40.5898 154.208 40.2847 154.884 40.0649C155.567 39.8452 156.332 39.7354 157.179 39.7354C158.18 39.7354 159.071 39.9062 159.852 40.248C160.641 40.5817 161.26 41.0863 161.708 41.7617C162.163 42.4372 162.391 43.2876 162.391 44.313V50.0747C162.391 50.7339 162.432 51.2995 162.513 51.7715C162.603 52.2354 162.733 52.6382 162.904 52.98V53.1875H159.62C159.465 52.8538 159.347 52.4307 159.266 51.918C159.185 51.3971 159.144 50.8844 159.144 50.3799ZM159.596 45.1431L159.62 47.0596H157.582C157.077 47.0596 156.633 47.1125 156.251 47.2183C155.868 47.3159 155.555 47.4624 155.311 47.6577C155.067 47.8449 154.884 48.0728 154.762 48.3413C154.64 48.6017 154.579 48.8988 154.579 49.2324C154.579 49.5579 154.652 49.8509 154.798 50.1113C154.953 50.3717 155.173 50.5793 155.458 50.7339C155.75 50.8804 156.092 50.9536 156.483 50.9536C157.053 50.9536 157.549 50.8397 157.972 50.6118C158.395 50.3758 158.725 50.091 158.961 49.7573C159.197 49.4237 159.323 49.1063 159.339 48.8052L160.267 50.1968C160.153 50.5304 159.982 50.8844 159.754 51.2588C159.527 51.6331 159.234 51.9831 158.875 52.3086C158.517 52.6341 158.086 52.9027 157.582 53.1143C157.077 53.3258 156.491 53.4316 155.824 53.4316C154.969 53.4316 154.204 53.2607 153.529 52.9189C152.853 52.5771 152.32 52.1092 151.93 51.5151C151.539 50.9211 151.344 50.2456 151.344 49.4888C151.344 48.7889 151.474 48.1704 151.734 47.6333C151.995 47.0962 152.381 46.6445 152.894 46.2783C153.407 45.904 154.042 45.6232 154.798 45.436C155.563 45.2407 156.438 45.1431 157.423 45.1431H159.596ZM168.714 34.4375V53.1875H165.479V34.4375H168.714ZM181.178 42.7993V53.1875H177.955V39.9795H180.982L181.178 42.7993ZM180.665 46.1074H179.713C179.721 45.1471 179.851 44.2764 180.104 43.4951C180.356 42.7139 180.71 42.0425 181.166 41.481C181.629 40.9194 182.179 40.4881 182.813 40.187C183.448 39.8859 184.156 39.7354 184.938 39.7354C185.572 39.7354 186.146 39.8249 186.659 40.0039C187.171 40.1829 187.611 40.4678 187.977 40.8584C188.351 41.249 188.636 41.7617 188.832 42.3965C189.035 43.0231 189.137 43.7962 189.137 44.7158V53.1875H185.89V44.6914C185.89 44.0892 185.8 43.6131 185.621 43.2632C185.45 42.9132 185.198 42.665 184.864 42.5186C184.539 42.3721 184.136 42.2988 183.656 42.2988C183.159 42.2988 182.724 42.4006 182.35 42.604C181.983 42.7993 181.674 43.0719 181.422 43.4219C181.178 43.7718 180.991 44.1746 180.86 44.6304C180.73 45.0861 180.665 45.5785 180.665 46.1074ZM195.399 39.9795V53.1875H192.164V39.9795H195.399ZM191.944 36.5249C191.944 36.0448 192.107 35.646 192.433 35.3286C192.766 35.0112 193.214 34.8525 193.775 34.8525C194.337 34.8525 194.78 35.0112 195.106 35.3286C195.44 35.646 195.606 36.0448 195.606 36.5249C195.606 36.9969 195.44 37.3916 195.106 37.709C194.78 38.0264 194.337 38.1851 193.775 38.1851C193.214 38.1851 192.766 38.0264 192.433 37.709C192.107 37.3916 191.944 36.9969 191.944 36.5249ZM202.857 50.7461L205.934 39.9795H209.303L204.774 53.1875H202.723L202.857 50.7461ZM200.611 39.9795L203.724 50.7705L203.834 53.1875H201.771L197.23 39.9795H200.611ZM216.761 53.4316C215.76 53.4316 214.861 53.2689 214.063 52.9434C213.266 52.6178 212.586 52.1662 212.025 51.5884C211.472 51.0024 211.044 50.3229 210.743 49.5498C210.45 48.7686 210.304 47.9303 210.304 47.0352V46.5469C210.304 45.5296 210.45 44.606 210.743 43.7759C211.036 42.9377 211.451 42.2174 211.988 41.6152C212.525 41.013 213.168 40.5492 213.917 40.2236C214.666 39.8981 215.492 39.7354 216.395 39.7354C217.331 39.7354 218.157 39.894 218.873 40.2114C219.589 40.5207 220.187 40.9601 220.667 41.5298C221.148 42.0994 221.51 42.783 221.754 43.5806C221.998 44.37 222.12 45.2448 222.12 46.2051V47.5601H211.769V45.3384H218.946V45.0942C218.93 44.5815 218.832 44.1136 218.653 43.6904C218.474 43.2591 218.198 42.9173 217.823 42.665C217.449 42.4046 216.965 42.2744 216.371 42.2744C215.89 42.2744 215.471 42.3802 215.113 42.5918C214.763 42.7952 214.47 43.0882 214.234 43.4707C214.007 43.8451 213.836 44.2926 213.722 44.8135C213.608 45.3343 213.551 45.9121 213.551 46.5469V47.0352C213.551 47.5885 213.624 48.1012 213.771 48.5732C213.925 49.0452 214.149 49.4562 214.442 49.8062C214.743 50.1479 215.101 50.4165 215.516 50.6118C215.939 50.799 216.419 50.8926 216.957 50.8926C217.632 50.8926 218.242 50.7624 218.788 50.502C219.341 50.2334 219.821 49.8387 220.228 49.3179L221.852 51.0024C221.575 51.4093 221.201 51.8 220.729 52.1743C220.265 52.5487 219.703 52.8538 219.044 53.0898C218.385 53.3177 217.624 53.4316 216.761 53.4316ZM227.699 34.4375V53.1875H224.464V34.4375H227.699ZM245.802 35.2676H246.241V37.8677H246.034C245.049 37.8677 244.182 38.0182 243.434 38.3193C242.693 38.6204 242.075 39.0436 241.578 39.5889C241.09 40.126 240.72 40.7648 240.467 41.5054C240.215 42.2378 240.089 43.0394 240.089 43.9102V46.791C240.089 47.4665 240.158 48.0605 240.296 48.5732C240.443 49.0778 240.642 49.505 240.895 49.855C241.155 50.1968 241.456 50.4531 241.798 50.624C242.148 50.7949 242.53 50.8804 242.945 50.8804C243.36 50.8804 243.735 50.7949 244.068 50.624C244.402 50.4531 244.687 50.2131 244.923 49.9038C245.167 49.5864 245.35 49.2161 245.472 48.793C245.602 48.3698 245.667 47.9059 245.667 47.4014C245.667 46.9049 245.606 46.4451 245.484 46.022C245.362 45.5988 245.183 45.2285 244.947 44.9111C244.711 44.5856 244.418 44.3374 244.068 44.1665C243.727 43.9875 243.336 43.8979 242.896 43.8979C242.327 43.8979 241.818 44.0322 241.371 44.3008C240.923 44.5612 240.569 44.903 240.309 45.3262C240.048 45.7493 239.906 46.1969 239.881 46.6689L238.795 46.1318C238.836 45.4401 238.982 44.8053 239.234 44.2275C239.495 43.6497 239.841 43.1452 240.272 42.7139C240.711 42.2826 241.228 41.9489 241.822 41.7129C242.424 41.4769 243.092 41.3589 243.824 41.3589C244.671 41.3589 245.411 41.5216 246.046 41.8472C246.681 42.1646 247.206 42.5999 247.621 43.1533C248.044 43.7067 248.361 44.3455 248.573 45.0698C248.784 45.786 248.89 46.5428 248.89 47.3403C248.89 48.1948 248.752 48.9924 248.475 49.7329C248.207 50.4735 247.816 51.1204 247.303 51.6738C246.791 52.2272 246.172 52.6585 245.448 52.9678C244.723 53.277 243.91 53.4316 243.006 53.4316C242.054 53.4316 241.2 53.2526 240.443 52.8945C239.694 52.5365 239.051 52.04 238.514 51.4053C237.977 50.7705 237.566 50.0299 237.281 49.1836C236.996 48.3372 236.854 47.4217 236.854 46.437V45.1431C236.854 43.7515 237.045 42.4575 237.428 41.2612C237.81 40.0649 238.376 39.0192 239.125 38.124C239.881 37.2207 240.817 36.5208 241.932 36.0244C243.047 35.5199 244.337 35.2676 245.802 35.2676Z" fill="white"/>
<path d="M1037.65 24.6416V26.6855H1036.59V24.6416H1037.65ZM1037.52 35.8047V37.6367H1036.47V35.8047H1037.52ZM1038.55 33.5967C1038.55 33.3324 1038.5 33.1022 1038.39 32.9062C1038.28 32.7057 1038.11 32.5257 1037.87 32.3662C1037.62 32.2021 1037.3 32.0495 1036.9 31.9082C1036.31 31.7031 1035.8 31.473 1035.36 31.2178C1034.93 30.958 1034.59 30.639 1034.35 30.2607C1034.12 29.8779 1034 29.4017 1034 28.832C1034 28.2715 1034.12 27.7861 1034.38 27.376C1034.64 26.9658 1035 26.6491 1035.46 26.4258C1035.92 26.2025 1036.46 26.0908 1037.07 26.0908C1037.55 26.0908 1037.97 26.1615 1038.35 26.3027C1038.73 26.444 1039.06 26.6514 1039.33 26.9248C1039.6 27.1982 1039.8 27.5355 1039.94 27.9365C1040.09 28.333 1040.16 28.7887 1040.16 29.3037H1038.52C1038.52 29.012 1038.49 28.7523 1038.42 28.5244C1038.36 28.292 1038.26 28.096 1038.13 27.9365C1038.01 27.7725 1037.85 27.6471 1037.67 27.5605C1037.49 27.474 1037.29 27.4307 1037.06 27.4307C1036.74 27.4307 1036.47 27.4922 1036.26 27.6152C1036.05 27.7337 1035.9 27.8978 1035.79 28.1074C1035.7 28.3171 1035.65 28.5563 1035.65 28.8252C1035.65 29.085 1035.7 29.3128 1035.8 29.5088C1035.9 29.7048 1036.07 29.8825 1036.31 30.042C1036.56 30.1969 1036.9 30.3542 1037.33 30.5137C1037.91 30.7233 1038.42 30.958 1038.85 31.2178C1039.28 31.473 1039.62 31.7897 1039.85 32.168C1040.09 32.5417 1040.2 33.0133 1040.2 33.583C1040.2 34.1709 1040.07 34.6699 1039.79 35.0801C1039.53 35.4902 1039.15 35.8024 1038.66 36.0166C1038.18 36.2262 1037.61 36.3311 1036.97 36.3311C1036.57 36.3311 1036.16 36.2786 1035.76 36.1738C1035.36 36.0645 1035 35.8867 1034.68 35.6406C1034.36 35.3945 1034.1 35.0687 1033.91 34.6631C1033.72 34.2529 1033.62 33.7516 1033.62 33.1592H1035.28C1035.28 33.5146 1035.32 33.8109 1035.42 34.0479C1035.51 34.2848 1035.64 34.4717 1035.81 34.6084C1035.97 34.7451 1036.15 34.8431 1036.36 34.9023C1036.56 34.9616 1036.77 34.9912 1036.97 34.9912C1037.31 34.9912 1037.6 34.9342 1037.83 34.8203C1038.07 34.7018 1038.25 34.5378 1038.37 34.3281C1038.49 34.1139 1038.55 33.8701 1038.55 33.5967ZM1046.86 31.5596L1045.55 31.2383L1046.09 26.2344H1051.46V27.6289H1047.46L1047.18 30.0693C1047.34 29.9782 1047.55 29.8893 1047.83 29.8027C1048.1 29.7116 1048.41 29.666 1048.76 29.666C1049.23 29.666 1049.65 29.7435 1050.02 29.8984C1050.39 30.0488 1050.71 30.2699 1050.97 30.5615C1051.23 30.8486 1051.43 31.1995 1051.57 31.6143C1051.7 32.0244 1051.77 32.487 1051.77 33.002C1051.77 33.4622 1051.7 33.8929 1051.57 34.2939C1051.43 34.695 1051.23 35.0482 1050.96 35.3535C1050.69 35.6589 1050.36 35.8981 1049.95 36.0713C1049.54 36.2399 1049.06 36.3242 1048.5 36.3242C1048.09 36.3242 1047.69 36.265 1047.31 36.1465C1046.93 36.0234 1046.59 35.8434 1046.29 35.6064C1045.99 35.3649 1045.75 35.0687 1045.56 34.7178C1045.38 34.3623 1045.28 33.9544 1045.25 33.4941H1046.86C1046.9 33.8177 1046.99 34.0934 1047.13 34.3213C1047.27 34.5446 1047.46 34.7155 1047.69 34.834C1047.92 34.9525 1048.19 35.0117 1048.5 35.0117C1048.77 35.0117 1049.01 34.9639 1049.21 34.8682C1049.41 34.7679 1049.58 34.6266 1049.71 34.4443C1049.85 34.2575 1049.95 34.0387 1050.01 33.7881C1050.08 33.5374 1050.12 33.2594 1050.12 32.9541C1050.12 32.6624 1050.08 32.3958 1050 32.1543C1049.93 31.9128 1049.82 31.7031 1049.67 31.5254C1049.52 31.3477 1049.33 31.2109 1049.11 31.1152C1048.89 31.015 1048.63 30.9648 1048.34 30.9648C1047.95 30.9648 1047.65 31.0218 1047.44 31.1357C1047.23 31.2497 1047.04 31.391 1046.86 31.5596ZM1059.58 30.377V32.0039C1059.58 32.7832 1059.5 33.4486 1059.34 34C1059.19 34.5469 1058.98 34.9912 1058.69 35.333C1058.4 35.6748 1058.06 35.9255 1057.66 36.085C1057.26 36.2445 1056.82 36.3242 1056.32 36.3242C1055.93 36.3242 1055.57 36.2741 1055.23 36.1738C1054.9 36.0736 1054.6 35.9163 1054.33 35.7021C1054.06 35.488 1053.83 35.2122 1053.64 34.875C1053.45 34.5332 1053.3 34.1253 1053.2 33.6514C1053.1 33.1774 1053.05 32.6283 1053.05 32.0039V30.377C1053.05 29.5931 1053.13 28.9323 1053.28 28.3945C1053.44 27.8522 1053.66 27.4124 1053.94 27.0752C1054.23 26.7334 1054.57 26.485 1054.97 26.3301C1055.37 26.1751 1055.82 26.0977 1056.31 26.0977C1056.71 26.0977 1057.07 26.1478 1057.4 26.248C1057.74 26.3438 1058.04 26.4964 1058.31 26.7061C1058.57 26.9157 1058.8 27.1891 1058.99 27.5264C1059.18 27.859 1059.33 28.2624 1059.43 28.7363C1059.53 29.2057 1059.58 29.7526 1059.58 30.377ZM1057.93 32.2363V30.1309C1057.93 29.7344 1057.91 29.3857 1057.86 29.085C1057.82 28.7796 1057.75 28.5221 1057.66 28.3125C1057.57 28.0983 1057.46 27.9251 1057.33 27.793C1057.2 27.6562 1057.05 27.5583 1056.88 27.499C1056.71 27.4352 1056.52 27.4033 1056.31 27.4033C1056.05 27.4033 1055.83 27.4535 1055.63 27.5537C1055.43 27.6494 1055.26 27.8044 1055.12 28.0186C1054.98 28.2327 1054.88 28.5153 1054.81 28.8662C1054.74 29.2126 1054.7 29.6341 1054.7 30.1309V32.2363C1054.7 32.6374 1054.73 32.9906 1054.77 33.2959C1054.82 33.6012 1054.89 33.8633 1054.98 34.082C1055.07 34.2962 1055.18 34.474 1055.3 34.6152C1055.44 34.752 1055.59 34.8522 1055.76 34.916C1055.93 34.9798 1056.12 35.0117 1056.32 35.0117C1056.58 35.0117 1056.81 34.9616 1057.01 34.8613C1057.21 34.7611 1057.38 34.6016 1057.52 34.3828C1057.66 34.1595 1057.76 33.8701 1057.83 33.5146C1057.9 33.1592 1057.93 32.7331 1057.93 32.2363ZM1061.21 35.3672C1061.21 35.112 1061.3 34.8978 1061.47 34.7246C1061.64 34.5469 1061.88 34.458 1062.17 34.458C1062.48 34.458 1062.71 34.5469 1062.88 34.7246C1063.05 34.8978 1063.14 35.112 1063.14 35.3672C1063.14 35.6224 1063.05 35.8366 1062.88 36.0098C1062.71 36.1829 1062.48 36.2695 1062.17 36.2695C1061.88 36.2695 1061.64 36.1829 1061.47 36.0098C1061.3 35.8366 1061.21 35.6224 1061.21 35.3672ZM1069.92 26.1729H1070.12V27.5195H1070.01C1069.42 27.5195 1068.91 27.6107 1068.48 27.793C1068.06 27.9753 1067.71 28.2259 1067.44 28.5449C1067.17 28.8639 1066.96 29.2376 1066.82 29.666C1066.69 30.0898 1066.62 30.541 1066.62 31.0195V32.585C1066.62 32.9814 1066.67 33.3324 1066.75 33.6377C1066.84 33.9385 1066.96 34.1914 1067.12 34.3965C1067.28 34.597 1067.46 34.7497 1067.66 34.8545C1067.87 34.9593 1068.09 35.0117 1068.33 35.0117C1068.57 35.0117 1068.8 34.9616 1069 34.8613C1069.2 34.7565 1069.37 34.613 1069.51 34.4307C1069.65 34.2484 1069.76 34.0319 1069.83 33.7812C1069.9 33.5306 1069.94 33.2572 1069.94 32.9609C1069.94 32.6784 1069.9 32.4141 1069.83 32.168C1069.76 31.9173 1069.66 31.6986 1069.52 31.5117C1069.39 31.3203 1069.22 31.1722 1069.01 31.0674C1068.81 30.958 1068.58 30.9033 1068.31 30.9033C1067.99 30.9033 1067.69 30.9808 1067.42 31.1357C1067.15 31.2907 1066.94 31.4935 1066.78 31.7441C1066.62 31.9902 1066.53 32.2523 1066.52 32.5303L1065.89 32.3252C1065.92 31.9014 1066.02 31.5208 1066.17 31.1836C1066.32 30.8464 1066.52 30.5592 1066.78 30.3223C1067.03 30.0853 1067.32 29.9053 1067.64 29.7822C1067.98 29.6546 1068.34 29.5908 1068.74 29.5908C1069.22 29.5908 1069.64 29.682 1070 29.8643C1070.35 30.0465 1070.64 30.2949 1070.88 30.6094C1071.11 30.9193 1071.29 31.2747 1071.4 31.6758C1071.52 32.0723 1071.58 32.487 1071.58 32.9199C1071.58 33.3984 1071.51 33.8451 1071.36 34.2598C1071.22 34.6699 1071 35.0299 1070.72 35.3398C1070.44 35.6497 1070.1 35.8913 1069.7 36.0645C1069.3 36.2376 1068.85 36.3242 1068.35 36.3242C1067.81 36.3242 1067.34 36.2217 1066.92 36.0166C1066.5 35.8115 1066.15 35.529 1065.86 35.1689C1065.57 34.8089 1065.35 34.3942 1065.2 33.9248C1065.05 33.4554 1064.98 32.9587 1064.98 32.4346V31.751C1064.98 30.9945 1065.07 30.2812 1065.26 29.6113C1065.46 28.9368 1065.75 28.3421 1066.15 27.8271C1066.55 27.3122 1067.06 26.9089 1067.68 26.6172C1068.31 26.321 1069.05 26.1729 1069.92 26.1729ZM1074.23 34.8887H1074.36C1074.99 34.8887 1075.52 34.8066 1075.94 34.6426C1076.36 34.474 1076.7 34.2415 1076.95 33.9453C1077.2 33.6491 1077.38 33.3005 1077.49 32.8994C1077.6 32.4984 1077.65 32.0632 1077.65 31.5938V29.8779C1077.65 29.4723 1077.61 29.1169 1077.52 28.8115C1077.44 28.5016 1077.32 28.2441 1077.17 28.0391C1077.02 27.8294 1076.84 27.6722 1076.64 27.5674C1076.44 27.4626 1076.23 27.4102 1076 27.4102C1075.75 27.4102 1075.53 27.4671 1075.33 27.5811C1075.13 27.6904 1074.96 27.8431 1074.83 28.0391C1074.7 28.2305 1074.59 28.4561 1074.52 28.7158C1074.45 28.971 1074.42 29.2445 1074.42 29.5361C1074.42 29.8096 1074.45 30.0739 1074.51 30.3291C1074.58 30.5798 1074.68 30.8031 1074.81 30.999C1074.95 31.195 1075.11 31.3499 1075.31 31.4639C1075.51 31.5778 1075.75 31.6348 1076.02 31.6348C1076.27 31.6348 1076.51 31.5869 1076.72 31.4912C1076.94 31.391 1077.12 31.2565 1077.28 31.0879C1077.44 30.9193 1077.57 30.7301 1077.66 30.5205C1077.75 30.3109 1077.8 30.0967 1077.81 29.8779L1078.44 30.0693C1078.44 30.4157 1078.36 30.7575 1078.22 31.0947C1078.08 31.4274 1077.88 31.7327 1077.62 32.0107C1077.37 32.2842 1077.08 32.5029 1076.74 32.667C1076.41 32.8311 1076.05 32.9131 1075.66 32.9131C1075.18 32.9131 1074.76 32.8242 1074.4 32.6465C1074.04 32.4642 1073.74 32.2181 1073.5 31.9082C1073.26 31.5983 1073.08 31.2428 1072.96 30.8418C1072.84 30.4408 1072.78 30.0192 1072.78 29.5771C1072.78 29.0986 1072.86 28.6497 1073 28.2305C1073.15 27.8112 1073.36 27.4421 1073.64 27.123C1073.92 26.7995 1074.25 26.5488 1074.65 26.3711C1075.05 26.1888 1075.5 26.0977 1076.01 26.0977C1076.55 26.0977 1077.02 26.2025 1077.43 26.4121C1077.83 26.6217 1078.17 26.9111 1078.45 27.2803C1078.73 27.6494 1078.94 28.0778 1079.08 28.5654C1079.22 29.0531 1079.29 29.5771 1079.29 30.1377V30.7188C1079.29 31.3066 1079.24 31.874 1079.13 32.4209C1079.03 32.9632 1078.86 33.4668 1078.62 33.9316C1078.39 34.3919 1078.08 34.7975 1077.7 35.1484C1077.32 35.4948 1076.86 35.766 1076.3 35.9619C1075.76 36.1533 1075.12 36.249 1074.38 36.249H1074.23V34.8887ZM1087.34 30.377V32.0039C1087.34 32.7832 1087.27 33.4486 1087.11 34C1086.96 34.5469 1086.74 34.9912 1086.46 35.333C1086.17 35.6748 1085.82 35.9255 1085.42 36.085C1085.03 36.2445 1084.58 36.3242 1084.09 36.3242C1083.7 36.3242 1083.33 36.2741 1083 36.1738C1082.66 36.0736 1082.36 35.9163 1082.09 35.7021C1081.83 35.488 1081.6 35.2122 1081.4 34.875C1081.22 34.5332 1081.07 34.1253 1080.97 33.6514C1080.87 33.1774 1080.82 32.6283 1080.82 32.0039V30.377C1080.82 29.5931 1080.89 28.9323 1081.05 28.3945C1081.2 27.8522 1081.42 27.4124 1081.71 27.0752C1082 26.7334 1082.34 26.485 1082.74 26.3301C1083.14 26.1751 1083.58 26.0977 1084.08 26.0977C1084.47 26.0977 1084.84 26.1478 1085.17 26.248C1085.51 26.3438 1085.81 26.4964 1086.07 26.7061C1086.34 26.9157 1086.57 27.1891 1086.76 27.5264C1086.95 27.859 1087.09 28.2624 1087.19 28.7363C1087.29 29.2057 1087.34 29.7526 1087.34 30.377ZM1085.7 32.2363V30.1309C1085.7 29.7344 1085.67 29.3857 1085.63 29.085C1085.58 28.7796 1085.51 28.5221 1085.42 28.3125C1085.34 28.0983 1085.23 27.9251 1085.1 27.793C1084.96 27.6562 1084.81 27.5583 1084.64 27.499C1084.48 27.4352 1084.29 27.4033 1084.08 27.4033C1083.82 27.4033 1083.59 27.4535 1083.39 27.5537C1083.19 27.6494 1083.02 27.8044 1082.89 28.0186C1082.75 28.2327 1082.65 28.5153 1082.57 28.8662C1082.5 29.2126 1082.47 29.6341 1082.47 30.1309V32.2363C1082.47 32.6374 1082.49 32.9906 1082.54 33.2959C1082.58 33.6012 1082.65 33.8633 1082.74 34.082C1082.84 34.2962 1082.94 34.474 1083.07 34.6152C1083.2 34.752 1083.35 34.8522 1083.52 34.916C1083.7 34.9798 1083.89 35.0117 1084.09 35.0117C1084.35 35.0117 1084.58 34.9616 1084.78 34.8613C1084.98 34.7611 1085.15 34.6016 1085.29 34.3828C1085.42 34.1595 1085.53 33.8701 1085.59 33.5146C1085.66 33.1592 1085.7 32.7331 1085.7 32.2363Z" fill="white"/>
<path d="M1032.94 32.6875H1088.06V33.3848H1032.94V32.6875Z" fill="white"/>
<path d="M1041.39 40.0547V43.2451H1039.72V40.0547H1041.39ZM1041.18 57.5967V60.4756H1039.53V57.5967H1041.18ZM1042.58 54.0947C1042.58 53.6865 1042.5 53.332 1042.34 53.0312C1042.19 52.7305 1041.94 52.4619 1041.58 52.2256C1041.23 51.9893 1040.76 51.7637 1040.16 51.5488C1039.24 51.2122 1038.43 50.8434 1037.74 50.4424C1037.04 50.0342 1036.5 49.5293 1036.11 48.9277C1035.73 48.3262 1035.54 47.5671 1035.54 46.6504C1035.54 45.7695 1035.75 45.0068 1036.16 44.3623C1036.57 43.7106 1037.15 43.2093 1037.89 42.8584C1038.62 42.5003 1039.48 42.3213 1040.45 42.3213C1041.21 42.3213 1041.89 42.4359 1042.49 42.665C1043.1 42.887 1043.62 43.2129 1044.05 43.6426C1044.49 44.0723 1044.82 44.6022 1045.05 45.2324C1045.29 45.8555 1045.41 46.568 1045.41 47.3701H1042.57C1042.57 46.9261 1042.52 46.5322 1042.42 46.1885C1042.32 45.8447 1042.18 45.5547 1041.99 45.3184C1041.8 45.0749 1041.58 44.8923 1041.31 44.7705C1041.05 44.6488 1040.76 44.5879 1040.43 44.5879C1039.96 44.5879 1039.57 44.6774 1039.26 44.8564C1038.96 45.0355 1038.74 45.279 1038.59 45.5869C1038.46 45.8949 1038.39 46.2493 1038.39 46.6504C1038.39 47.0371 1038.46 47.3773 1038.61 47.6709C1038.76 47.9574 1039.01 48.2188 1039.36 48.4551C1039.72 48.6914 1040.21 48.9313 1040.83 49.1748C1041.76 49.5186 1042.57 49.8981 1043.26 50.3135C1043.94 50.7217 1044.48 51.223 1044.86 51.8174C1045.24 52.4118 1045.43 53.1637 1045.43 54.0732C1045.43 55.0042 1045.21 55.792 1044.78 56.4365C1044.36 57.0811 1043.77 57.5716 1043 57.9082C1042.23 58.2448 1041.34 58.4131 1040.32 58.4131C1039.67 58.4131 1039.03 58.3271 1038.39 58.1553C1037.75 57.9834 1037.17 57.7041 1036.65 57.3174C1036.13 56.9235 1035.72 56.4043 1035.42 55.7598C1035.11 55.1081 1034.95 54.3096 1034.95 53.3643H1037.8C1037.8 53.9085 1037.87 54.3597 1038.01 54.7178C1038.16 55.0758 1038.35 55.3623 1038.59 55.5771C1038.84 55.7848 1039.11 55.9316 1039.41 56.0176C1039.71 56.1035 1040.02 56.1465 1040.32 56.1465C1040.83 56.1465 1041.24 56.0605 1041.57 55.8887C1041.91 55.7168 1042.16 55.4769 1042.32 55.1689C1042.49 54.8538 1042.58 54.4958 1042.58 54.0947ZM1060.4 42.5039V58.1875H1057.55V45.8232L1053.78 47.0693V44.7705L1060.08 42.5039H1060.4ZM1076.17 42.5469V44.0938L1070.03 58.1875H1067.03L1073.17 44.7812H1065.22V42.5469H1076.17ZM1078.5 56.8018C1078.5 56.3721 1078.65 56.0104 1078.94 55.7168C1079.24 55.4232 1079.63 55.2764 1080.13 55.2764C1080.64 55.2764 1081.03 55.4232 1081.33 55.7168C1081.62 56.0104 1081.77 56.3721 1081.77 56.8018C1081.77 57.2243 1081.62 57.5824 1081.33 57.876C1081.03 58.1624 1080.64 58.3057 1080.13 58.3057C1079.63 58.3057 1079.24 58.1624 1078.94 57.876C1078.65 57.5824 1078.5 57.2243 1078.5 56.8018ZM1094.86 53.9121C1094.86 54.8861 1094.63 55.7096 1094.17 56.3828C1093.72 57.0488 1093.1 57.5537 1092.32 57.8975C1091.54 58.234 1090.65 58.4023 1089.65 58.4023C1088.66 58.4023 1087.77 58.234 1086.98 57.8975C1086.19 57.5537 1085.56 57.0488 1085.1 56.3828C1084.64 55.7096 1084.41 54.8861 1084.41 53.9121C1084.41 53.2604 1084.54 52.6696 1084.8 52.1396C1085.06 51.6097 1085.43 51.1549 1085.89 50.7754C1086.36 50.3887 1086.91 50.0951 1087.55 49.8945C1088.18 49.6868 1088.88 49.583 1089.63 49.583C1090.63 49.583 1091.53 49.7656 1092.32 50.1309C1093.11 50.4889 1093.73 50.9938 1094.19 51.6455C1094.64 52.29 1094.86 53.0456 1094.86 53.9121ZM1092 53.7402C1092 53.2389 1091.9 52.8057 1091.7 52.4404C1091.51 52.068 1091.24 51.7816 1090.88 51.5811C1090.52 51.3805 1090.1 51.2803 1089.63 51.2803C1089.15 51.2803 1088.73 51.3805 1088.37 51.5811C1088.02 51.7816 1087.75 52.068 1087.55 52.4404C1087.35 52.8057 1087.26 53.2389 1087.26 53.7402C1087.26 54.2487 1087.35 54.6855 1087.55 55.0508C1087.75 55.4089 1088.03 55.6846 1088.38 55.8779C1088.74 56.0713 1089.17 56.168 1089.65 56.168C1090.14 56.168 1090.56 56.0713 1090.91 55.8779C1091.26 55.6846 1091.53 55.4089 1091.71 55.0508C1091.91 54.6855 1092 54.2487 1092 53.7402ZM1094.52 46.6719C1094.52 47.4596 1094.31 48.1615 1093.9 48.7773C1093.48 49.3861 1092.9 49.8623 1092.17 50.2061C1091.44 50.5498 1090.6 50.7217 1089.65 50.7217C1088.71 50.7217 1087.86 50.5498 1087.12 50.2061C1086.38 49.8623 1085.8 49.3861 1085.38 48.7773C1084.96 48.1615 1084.75 47.4596 1084.75 46.6719C1084.75 45.7409 1084.97 44.9531 1085.39 44.3086C1085.81 43.6569 1086.39 43.1628 1087.12 42.8262C1087.85 42.4896 1088.69 42.3213 1089.63 42.3213C1090.58 42.3213 1091.43 42.4896 1092.17 42.8262C1092.9 43.1628 1093.48 43.6569 1093.9 44.3086C1094.31 44.9531 1094.52 45.7409 1094.52 46.6719ZM1091.68 46.79C1091.68 46.346 1091.6 45.9593 1091.44 45.6299C1091.27 45.2933 1091.03 45.0319 1090.73 44.8457C1090.43 44.6595 1090.06 44.5664 1089.63 44.5664C1089.22 44.5664 1088.86 44.6559 1088.56 44.835C1088.26 45.014 1088.02 45.2718 1087.86 45.6084C1087.69 45.9378 1087.61 46.3317 1087.61 46.79C1087.61 47.2412 1087.69 47.6351 1087.86 47.9717C1088.02 48.3083 1088.26 48.5732 1088.56 48.7666C1088.86 48.9528 1089.23 49.0459 1089.65 49.0459C1090.07 49.0459 1090.44 48.9528 1090.74 48.7666C1091.04 48.5732 1091.27 48.3083 1091.44 47.9717C1091.6 47.6351 1091.68 47.2412 1091.68 46.79ZM1099.19 55.9854H1099.4C1100.32 55.9854 1101.1 55.8672 1101.74 55.6309C1102.38 55.3945 1102.9 55.0615 1103.29 54.6318C1103.7 54.195 1103.99 53.6758 1104.17 53.0742C1104.35 52.4655 1104.44 51.7923 1104.44 51.0547V48.2188C1104.44 47.6172 1104.38 47.0908 1104.26 46.6396C1104.14 46.1813 1103.97 45.7982 1103.75 45.4902C1103.53 45.1823 1103.28 44.9531 1102.98 44.8027C1102.69 44.6452 1102.37 44.5664 1102.04 44.5664C1101.67 44.5664 1101.34 44.6523 1101.05 44.8242C1100.76 44.9961 1100.52 45.2324 1100.32 45.5332C1100.13 45.8268 1099.98 46.167 1099.87 46.5537C1099.77 46.9404 1099.72 47.3486 1099.72 47.7783C1099.72 48.1937 1099.76 48.5911 1099.86 48.9707C1099.96 49.3503 1100.1 49.6868 1100.3 49.9805C1100.5 50.2741 1100.75 50.5068 1101.05 50.6787C1101.35 50.8434 1101.7 50.9258 1102.1 50.9258C1102.48 50.9258 1102.83 50.8542 1103.13 50.7109C1103.45 50.5605 1103.72 50.3636 1103.95 50.1201C1104.18 49.8695 1104.35 49.5938 1104.48 49.293C1104.61 48.985 1104.68 48.6735 1104.69 48.3584L1105.69 48.7881C1105.69 49.3109 1105.58 49.8265 1105.36 50.335C1105.14 50.8434 1104.84 51.3053 1104.44 51.7207C1104.06 52.1289 1103.61 52.4583 1103.09 52.709C1102.58 52.9525 1102.02 53.0742 1101.43 53.0742C1100.69 53.0742 1100.04 52.9382 1099.47 52.666C1098.9 52.3939 1098.43 52.0179 1098.04 51.5381C1097.66 51.0511 1097.38 50.4925 1097.18 49.8623C1096.99 49.2249 1096.89 48.5446 1096.89 47.8213C1096.89 47.0693 1097.01 46.3639 1097.25 45.7051C1097.48 45.0391 1097.82 44.4554 1098.27 43.9541C1098.72 43.4456 1099.26 43.0482 1099.9 42.7617C1100.54 42.4681 1101.25 42.3213 1102.05 42.3213C1102.87 42.3213 1103.61 42.4824 1104.25 42.8047C1104.9 43.127 1105.44 43.5745 1105.89 44.1475C1106.35 44.7132 1106.69 45.3828 1106.93 46.1562C1107.17 46.9297 1107.29 47.7747 1107.29 48.6914V49.6904C1107.29 50.6572 1107.19 51.5739 1107 52.4404C1106.81 53.307 1106.51 54.0983 1106.11 54.8145C1105.71 55.5306 1105.2 56.1501 1104.57 56.6729C1103.96 57.1956 1103.22 57.6003 1102.36 57.8867C1101.51 58.166 1100.53 58.3057 1099.44 58.3057H1099.19V55.9854ZM1111.76 55.9854H1111.96C1112.89 55.9854 1113.67 55.8672 1114.31 55.6309C1114.95 55.3945 1115.47 55.0615 1115.86 54.6318C1116.26 54.195 1116.55 53.6758 1116.73 53.0742C1116.92 52.4655 1117.01 51.7923 1117.01 51.0547V48.2188C1117.01 47.6172 1116.95 47.0908 1116.83 46.6396C1116.71 46.1813 1116.54 45.7982 1116.31 45.4902C1116.1 45.1823 1115.85 44.9531 1115.55 44.8027C1115.26 44.6452 1114.94 44.5664 1114.61 44.5664C1114.23 44.5664 1113.9 44.6523 1113.62 44.8242C1113.33 44.9961 1113.09 45.2324 1112.89 45.5332C1112.69 45.8268 1112.54 46.167 1112.44 46.5537C1112.34 46.9404 1112.29 47.3486 1112.29 47.7783C1112.29 48.1937 1112.33 48.5911 1112.43 48.9707C1112.53 49.3503 1112.67 49.6868 1112.87 49.9805C1113.07 50.2741 1113.32 50.5068 1113.62 50.6787C1113.92 50.8434 1114.27 50.9258 1114.67 50.9258C1115.05 50.9258 1115.39 50.8542 1115.7 50.7109C1116.02 50.5605 1116.29 50.3636 1116.52 50.1201C1116.75 49.8695 1116.92 49.5938 1117.04 49.293C1117.17 48.985 1117.25 48.6735 1117.26 48.3584L1118.26 48.7881C1118.26 49.3109 1118.15 49.8265 1117.93 50.335C1117.71 50.8434 1117.41 51.3053 1117.01 51.7207C1116.63 52.1289 1116.17 52.4583 1115.66 52.709C1115.14 52.9525 1114.59 53.0742 1113.99 53.0742C1113.26 53.0742 1112.6 52.9382 1112.04 52.666C1111.47 52.3939 1111 52.0179 1110.61 51.5381C1110.23 51.0511 1109.94 50.4925 1109.75 49.8623C1109.56 49.2249 1109.46 48.5446 1109.46 47.8213C1109.46 47.0693 1109.58 46.3639 1109.82 45.7051C1110.05 45.0391 1110.39 44.4554 1110.84 43.9541C1111.29 43.4456 1111.83 43.0482 1112.47 42.7617C1113.11 42.4681 1113.82 42.3213 1114.62 42.3213C1115.44 42.3213 1116.17 42.4824 1116.82 42.8047C1117.46 43.127 1118.01 43.5745 1118.46 44.1475C1118.91 44.7132 1119.26 45.3828 1119.49 46.1562C1119.74 46.9297 1119.86 47.7747 1119.86 48.6914V49.6904C1119.86 50.6572 1119.76 51.5739 1119.57 52.4404C1119.38 53.307 1119.08 54.0983 1118.68 54.8145C1118.28 55.5306 1117.76 56.1501 1117.14 56.6729C1116.53 57.1956 1115.79 57.6003 1114.93 57.8867C1114.08 58.166 1113.1 58.3057 1112.01 58.3057H1111.76V55.9854Z" fill="white"/>
<path d="M1130.31 47.9453L1126.82 57.981H1125.54L1129.03 47.9453H1130.31ZM1132.96 51.7285V57.1875H1131.28V50.3193H1132.86L1132.96 51.7285ZM1132.71 53.5059H1132.19C1132.19 53.0277 1132.25 52.5876 1132.37 52.1855C1132.48 51.7835 1132.66 51.4344 1132.89 51.1382C1133.11 50.8377 1133.4 50.605 1133.73 50.4399C1134.07 50.2749 1134.46 50.1924 1134.9 50.1924C1135.21 50.1924 1135.5 50.2389 1135.76 50.332C1136.01 50.4209 1136.24 50.5627 1136.42 50.7573C1136.61 50.9478 1136.76 51.1974 1136.86 51.5063C1136.96 51.811 1137.01 52.1771 1137.01 52.6045V57.1875H1135.34V52.7759C1135.34 52.4543 1135.29 52.2025 1135.2 52.0205C1135.11 51.8385 1134.98 51.7116 1134.81 51.6396C1134.64 51.5635 1134.44 51.5254 1134.2 51.5254C1133.94 51.5254 1133.71 51.5783 1133.52 51.6841C1133.33 51.7856 1133.18 51.9274 1133.06 52.1094C1132.94 52.2913 1132.85 52.5008 1132.79 52.7378C1132.74 52.9748 1132.71 53.2308 1132.71 53.5059ZM1136.89 53.1948L1136.19 53.3218C1136.2 52.8901 1136.26 52.486 1136.37 52.1094C1136.49 51.7285 1136.65 51.3963 1136.87 51.1128C1137.1 50.825 1137.37 50.6007 1137.7 50.4399C1138.04 50.2749 1138.42 50.1924 1138.86 50.1924C1139.2 50.1924 1139.5 50.241 1139.77 50.3384C1140.05 50.4315 1140.28 50.5817 1140.48 50.7891C1140.67 50.9922 1140.82 51.2567 1140.92 51.5825C1141.03 51.9084 1141.08 52.3062 1141.08 52.7759V57.1875H1139.39V52.7695C1139.39 52.4352 1139.35 52.1792 1139.25 52.0015C1139.16 51.8237 1139.03 51.701 1138.87 51.6333C1138.7 51.5614 1138.5 51.5254 1138.27 51.5254C1138.04 51.5254 1137.83 51.5698 1137.66 51.6587C1137.49 51.7433 1137.35 51.8618 1137.23 52.0142C1137.11 52.1665 1137.03 52.3442 1136.97 52.5474C1136.91 52.7463 1136.89 52.9621 1136.89 53.1948ZM1145.67 57.3145C1145.15 57.3145 1144.68 57.2298 1144.27 57.0605C1143.85 56.8913 1143.5 56.6564 1143.21 56.356C1142.92 56.0513 1142.7 55.6979 1142.54 55.2959C1142.39 54.8896 1142.31 54.4538 1142.31 53.9883V53.7344C1142.31 53.2054 1142.39 52.7251 1142.54 52.2935C1142.69 51.8576 1142.91 51.4831 1143.19 51.1699C1143.47 50.8568 1143.8 50.6156 1144.19 50.4463C1144.58 50.277 1145.01 50.1924 1145.48 50.1924C1145.97 50.1924 1146.4 50.2749 1146.77 50.4399C1147.14 50.6007 1147.45 50.8293 1147.7 51.1255C1147.95 51.4217 1148.14 51.7772 1148.27 52.1919C1148.39 52.6024 1148.46 53.0573 1148.46 53.5566V54.2612H1143.07V53.106H1146.81V52.979C1146.8 52.7124 1146.75 52.4691 1146.65 52.249C1146.56 52.0247 1146.42 51.847 1146.22 51.7158C1146.03 51.5804 1145.78 51.5127 1145.47 51.5127C1145.22 51.5127 1145 51.5677 1144.81 51.6777C1144.63 51.7835 1144.48 51.9359 1144.36 52.1348C1144.24 52.3294 1144.15 52.5622 1144.09 52.833C1144.03 53.1038 1144 53.4043 1144 53.7344V53.9883C1144 54.276 1144.04 54.5426 1144.12 54.7881C1144.2 55.0335 1144.31 55.2472 1144.46 55.4292C1144.62 55.6069 1144.81 55.7466 1145.02 55.8481C1145.24 55.9455 1145.49 55.9941 1145.77 55.9941C1146.12 55.9941 1146.44 55.9264 1146.72 55.791C1147.01 55.6514 1147.26 55.4461 1147.47 55.1753L1148.32 56.0513C1148.17 56.2629 1147.98 56.466 1147.73 56.6606C1147.49 56.8553 1147.2 57.014 1146.86 57.1367C1146.51 57.2552 1146.12 57.3145 1145.67 57.3145ZM1153.36 55.3086C1153.36 55.1647 1153.32 55.0356 1153.24 54.9214C1153.17 54.8071 1153.02 54.7035 1152.81 54.6104C1152.6 54.513 1152.3 54.422 1151.9 54.3374C1151.54 54.2612 1151.21 54.166 1150.91 54.0518C1150.61 53.9375 1150.35 53.8 1150.14 53.6392C1149.92 53.4741 1149.75 53.2816 1149.63 53.0615C1149.51 52.8372 1149.45 52.5791 1149.45 52.2871C1149.45 52.0036 1149.51 51.737 1149.64 51.4873C1149.76 51.2334 1149.94 51.0112 1150.17 50.8208C1150.4 50.6261 1150.69 50.4738 1151.02 50.3638C1151.36 50.2495 1151.73 50.1924 1152.15 50.1924C1152.74 50.1924 1153.24 50.2876 1153.66 50.478C1154.08 50.6685 1154.4 50.9308 1154.63 51.2651C1154.85 51.5952 1154.96 51.9676 1154.96 52.3823H1153.29C1153.29 52.2004 1153.25 52.0353 1153.16 51.8872C1153.08 51.7391 1152.96 51.6206 1152.79 51.5317C1152.62 51.4386 1152.4 51.3921 1152.15 51.3921C1151.91 51.3921 1151.72 51.4302 1151.55 51.5063C1151.4 51.5825 1151.28 51.682 1151.2 51.8047C1151.12 51.9274 1151.08 52.0628 1151.08 52.2109C1151.08 52.321 1151.1 52.4204 1151.14 52.5093C1151.19 52.5939 1151.26 52.6722 1151.36 52.7441C1151.47 52.8161 1151.6 52.8817 1151.78 52.9409C1151.95 53.0002 1152.17 53.0573 1152.43 53.1123C1152.94 53.2139 1153.39 53.3493 1153.77 53.5186C1154.16 53.6836 1154.46 53.9036 1154.67 54.1787C1154.89 54.4538 1155 54.805 1155 55.2324C1155 55.5371 1154.93 55.8164 1154.8 56.0703C1154.67 56.32 1154.48 56.5379 1154.23 56.7241C1153.98 56.9103 1153.68 57.0563 1153.33 57.1621C1152.99 57.2637 1152.59 57.3145 1152.16 57.3145C1151.53 57.3145 1150.99 57.2023 1150.56 56.978C1150.12 56.7495 1149.79 56.4618 1149.57 56.1147C1149.34 55.7635 1149.23 55.3996 1149.23 55.0229H1150.84C1150.85 55.2896 1150.92 55.5033 1151.05 55.6641C1151.18 55.8249 1151.35 55.9412 1151.55 56.0132C1151.75 56.0809 1151.97 56.1147 1152.19 56.1147C1152.44 56.1147 1152.66 56.0809 1152.83 56.0132C1153 55.9412 1153.14 55.846 1153.22 55.7275C1153.31 55.6048 1153.36 55.4652 1153.36 55.3086Z" fill="white"/>
<mask id="path-5-inside-1_1_199" fill="white">
<path d="M1024.06 24.1875H1026.06V61.1875H1024.06V24.1875Z"/>
</mask>
<path d="M1026.06 61.1875V24.1875H1022.06V61.1875H1026.06Z" fill="white" mask="url(#path-5-inside-1_1_199)"/>
<defs>
<linearGradient id="paint0_linear_1_199" x1="0" y1="43.5" x2="1180" y2="43.5" gradientUnits="userSpaceOnUse">
<stop offset="0.55" stop-color="#A90F90"/>
<stop offset="1" stop-color="#0C1A51"/>
</linearGradient>
</defs>
</svg>
