<svg width="74" height="75" viewBox="0 0 74 75" fill="none" xmlns="http://www.w3.org/2000/svg">
<g clip-path="url(#clip0_1_212)">
<mask id="mask0_1_212" style="mask-type:alpha" maskUnits="userSpaceOnUse" x="1" y="1" width="72" height="73">
<path d="M73 1.6875H1V73.6875H73V1.6875Z" fill="white"/>
</mask>
<g mask="url(#mask0_1_212)">
<path d="M73 1.6875H1V73.6875H73V1.6875Z" fill="white"/>
<path d="M1 37.6875C1 57.5694 17.1181 73.6875 37 73.6875C56.8819 73.6875 73 57.5694 73 37.6875C73 17.8056 56.8819 1.6875 37 1.6875C17.1181 1.6875 1 17.8056 1 37.6875Z" fill="white"/>
<path d="M33.958 43.8291L34.0318 43.8381C34.5772 43.9128 35.1127 44.0118 35.5231 44.1945C35.9047 44.3628 36.1261 44.5761 36.3304 44.9541C36.6391 45.5283 36.6598 46.3338 36.3808 46.9431C36.1711 47.3949 35.7121 47.7756 35.2936 47.9781C34.8589 48.1887 34.4305 48.2886 33.9391 48.3444C33.0787 48.4389 32.1508 48.2607 31.3777 47.8863C30.9196 47.6631 30.3616 47.2779 30.0799 46.7829C29.975 46.6017 29.924 46.3943 29.9331 46.1851C29.9422 45.9758 30.0109 45.7736 30.1312 45.6021C30.5335 45.0522 31.3939 44.9307 32.0428 44.9541C32.5378 44.973 33.4279 45.1251 33.8968 45.2925C34.0273 45.3402 34.5061 45.5265 34.5898 45.612C34.6492 45.6714 34.687 45.7587 34.6618 45.8388C34.5538 46.1673 33.7564 46.3401 33.5269 46.3743C32.9104 46.4679 32.5909 46.2348 31.8898 45.9585C31.7029 45.8812 31.5069 45.8276 31.3066 45.7992C30.9889 45.7686 30.6046 45.8577 30.5434 46.2051C30.5137 46.3851 30.7234 46.5525 30.8836 46.6218C31.2589 46.7838 31.5649 46.8414 31.9348 46.8468C33.0274 46.8648 34.2559 46.6848 35.1496 46.0503C35.272 45.9639 35.3926 45.8352 35.3926 45.675C35.3971 45.3492 34.8274 45.1503 34.8274 45.1503C34.2244 44.8992 33.112 44.7768 32.5396 44.7291C31.9375 44.6778 30.9916 44.5986 30.7648 44.5653C30.5308 44.532 30.277 44.4843 30.0745 44.3943C29.8711 44.3016 29.6722 44.0973 29.6128 43.8687C29.5075 43.4583 29.6416 42.9552 29.8693 42.6276C30.4669 41.7699 31.8646 41.4432 32.9104 41.3136C33.922 41.1876 35.5564 41.1894 36.5509 41.7168C36.7039 41.7987 36.7822 41.8761 36.7489 42.039C36.685 42.3477 36.4537 42.5457 36.1729 42.633C35.8795 42.7257 35.2711 42.7635 35.0029 42.7797C33.805 42.8472 32.3569 42.8121 31.2166 43.1226C31.1275 43.1487 30.9736 43.1901 30.9232 43.2468C30.7432 43.4403 31.2544 43.4961 31.3642 43.5186C31.3957 43.5258 31.402 43.5276 31.4362 43.5303L33.958 43.8291ZM26.8327 38.4885C26.8327 38.4885 27.028 38.196 27.1909 37.9746C27.4879 37.5714 28.0252 37.0116 28.4311 36.6642C28.5553 36.5589 28.7011 36.4392 28.7011 36.4392C28.7011 36.4392 28.4725 36.4626 28.3429 36.4887C28.036 36.5481 27.5851 36.8487 27.3592 37.0413C26.9884 37.3599 26.5789 37.8765 26.7634 38.3355C26.7904 38.4003 26.8327 38.4885 26.8327 38.4885ZM28.8982 39.0402C29.4776 39.0001 30.0408 38.8317 30.547 38.547C31.0492 38.2653 31.7872 37.719 31.7107 37.0737C31.6997 36.9776 31.6631 36.8863 31.6046 36.8092C31.5462 36.7321 31.4682 36.6721 31.3786 36.6354C31.1536 36.5382 31.0384 36.5544 30.7522 36.6381C30.5452 36.7002 30.4507 36.7362 30.2545 36.8487C29.6785 37.1826 28.8622 37.899 28.4185 38.4696C28.3168 38.6046 28.2124 38.7549 28.1314 38.8593C28.0801 38.9223 28.0414 38.9817 28.0459 38.997C28.063 39.0627 28.6687 39.0564 28.8982 39.0402ZM27.4024 40.1382C27.3421 40.2012 27.2782 40.356 27.2116 40.4685C27.1733 40.532 27.1246 40.5886 27.0676 40.6359C26.9146 40.7484 26.785 40.7547 26.6374 40.6242C26.5352 40.5293 26.4529 40.4148 26.3954 40.2876C26.3379 40.1604 26.3064 40.0231 26.3026 39.8835C26.299 39.7629 26.3188 39.6306 26.2972 39.5289C26.2594 39.3579 26.0884 39.1824 25.9957 39.0186C25.8788 38.7861 25.8085 38.533 25.7887 38.2734C25.7527 37.5984 26.1082 36.9756 26.5708 36.4842C27.0624 35.9722 27.6543 35.5672 28.3096 35.2944C28.936 35.0307 29.8549 34.8507 30.5434 35.0883C30.7684 35.1648 31.0798 35.3565 31.2364 35.5554C31.2706 35.5968 31.2976 35.6427 31.3318 35.6634C31.3624 35.6832 31.4425 35.6904 31.5064 35.7021C31.7251 35.7408 32.0419 35.9064 32.1715 36.0171C32.4307 36.2403 32.5729 36.4554 32.6386 36.765C32.77 37.3905 32.4109 38.0754 31.9996 38.4921C31.2985 39.2094 30.6064 39.7161 29.7082 40.0662C29.314 40.2192 28.7002 40.3632 28.2529 40.3236C28.1143 40.3119 27.9712 40.275 27.8362 40.266C27.7179 40.2472 27.6016 40.2174 27.4888 40.1769C27.4546 40.1517 27.4105 40.1292 27.4024 40.1382ZM28.2043 41.5224C28.2313 41.5278 28.2745 41.5404 28.3105 41.553C28.6255 41.6736 28.7542 41.9643 28.8325 42.2838C29.0125 43.0263 29.0881 44.6697 29.1178 45.3123C29.1403 45.7947 29.152 46.2699 29.1718 46.747C29.1898 47.1519 29.2213 47.6883 29.1376 48.0672C29.1038 48.2196 29.0138 48.3536 28.8856 48.4425C28.7362 48.5379 28.396 48.546 28.2097 48.5055C27.7498 48.411 27.5986 48.115 27.5329 47.6595C27.3763 46.5723 27.4519 44.4375 27.5446 43.5375C27.5743 43.2405 27.6868 42.2883 27.8425 41.8887C27.8947 41.7564 28.0081 41.4837 28.2043 41.5224ZM14.1904 43.3314C14.1904 43.3314 13.5046 43.38 13.0321 43.4322C12.4318 43.497 11.3041 43.6923 10.6525 43.9245C10.4581 43.9947 10.0612 44.1603 10.0261 44.3619C9.99011 44.5689 10.1188 44.7327 10.2628 44.9019C10.3456 44.9991 10.8154 45.4509 10.9477 45.5616C11.5012 46.0224 12.6217 46.7343 13.447 47.0799C13.7305 47.1969 14.1994 47.3652 14.1994 47.3652C14.1994 47.3652 14.1652 46.0296 14.1706 44.7129C14.176 44.019 14.1904 43.3314 14.1904 43.3314ZM26.7616 43.8624C26.8012 44.2224 26.7094 44.9001 26.6932 44.9892C26.6635 45.1962 26.5078 45.6714 26.4826 45.729C26.3689 45.9894 26.2421 46.2438 26.1028 46.4913C25.8778 46.8963 25.3432 47.538 25.0264 47.8116C23.8465 48.8313 22.0186 49.4136 20.4517 49.6044C19.3154 49.7389 18.1655 49.7055 17.0389 49.5054C16.7161 49.4434 16.3945 49.3756 16.0741 49.302C16.0741 49.302 16.0768 49.5324 16.057 49.6953C16.048 49.7691 15.9922 49.9645 15.9616 50.0284C15.8797 50.1966 15.7456 50.2848 15.5485 50.3217C15.3136 50.3649 15.0625 50.3802 14.8438 50.2875C14.4865 50.1372 14.3578 49.8015 14.2948 49.4145C14.2444 49.1058 14.1922 48.5685 14.1922 48.5685C14.1922 48.5685 13.924 48.4407 13.7008 48.3291C13.0318 47.9957 12.3934 47.6042 11.7928 47.1591C11.4559 46.8926 11.1267 46.6165 10.8055 46.3311C10.3861 45.9333 10.0081 45.5364 9.72011 45.0261C9.49601 44.6301 9.43211 44.2755 9.60131 43.8552C9.83531 43.2675 10.6786 42.8256 11.2546 42.5727C11.6776 42.3864 12.9934 41.9562 13.5388 41.8779C13.7971 41.8401 14.1976 41.7681 14.2228 41.7537C14.2318 41.7473 14.24 41.7397 14.2471 41.7312C14.2597 41.7132 14.2804 41.1318 14.2759 40.9194C14.2714 40.7097 14.4307 39.3354 14.4829 39.0465C14.5099 38.889 14.6278 38.2851 14.7502 38.1249C14.8294 38.0178 14.9698 38.0259 15.085 38.097C15.7114 38.4858 15.9013 39.8376 15.9481 40.5261C15.976 40.9455 15.9895 41.5755 15.9895 41.5755C15.9895 41.5755 16.7086 41.5539 17.1505 41.5665C17.5807 41.5764 18.0541 41.6439 18.5005 41.716C19.072 41.8068 20.1853 42.0507 20.8234 42.3738C21.349 42.6411 21.8413 43.0893 22.0006 43.5645C22.1491 44.0001 22.1266 44.3025 21.9007 44.6949C21.6469 45.1386 21.1663 45.4689 20.6803 45.4959C20.5363 45.5049 19.9909 45.433 19.8226 45.3033C19.7569 45.2512 19.7596 45.1584 19.8073 45.0954C19.8253 45.0729 20.0809 44.9379 20.2303 44.8587C20.3059 44.8173 20.368 44.7741 20.4265 44.7201C20.5525 44.6103 20.6641 44.4888 20.6515 44.3475C20.6344 44.163 20.4391 44.0487 20.2537 43.9767C19.3825 43.6302 17.641 43.3422 16.8004 43.2927C16.471 43.2738 16.003 43.2567 16.003 43.2567L16.102 47.9016C16.102 47.9016 16.489 47.9754 16.795 48.0249C16.9687 48.0519 17.7112 48.1185 17.9083 48.1239C19.4086 48.1626 21.0853 48.0294 22.4614 47.3778C23.0662 47.0925 23.6206 46.7388 24.0409 46.26C24.5944 45.6255 24.8833 44.757 24.8077 43.8498C24.724 42.858 24.0265 41.6826 23.4694 40.9671C21.9988 39.0744 19.4761 37.5183 17.2576 36.6057C14.9914 35.6742 12.7531 35.1387 10.3501 35.0496C9.72911 35.0262 8.37911 35.0586 7.69601 35.2476C7.59881 35.2746 7.49981 35.3079 7.40891 35.3286C7.33279 35.3476 7.25997 35.3779 7.19291 35.4186C7.18126 35.4286 7.17015 35.4391 7.15961 35.4501C7.15961 35.4501 7.20191 35.4735 7.24061 35.4906C7.31351 35.5221 7.61861 35.541 7.77611 35.5707C7.91651 35.5968 8.06411 35.6715 8.12171 35.775C8.17751 35.8731 8.18471 35.9505 8.11721 36.0324C7.96331 36.2214 7.38101 36.189 7.12361 36.1494C6.85721 36.1062 6.52511 36.0243 6.46481 35.793C6.39371 35.5203 6.52331 35.2521 6.66371 35.0037C6.94631 34.5087 7.34951 34.2504 7.94081 34.0884C8.82106 33.8532 9.72364 33.7115 10.6336 33.6654C12.4291 33.5979 14.1274 33.912 15.8662 34.4403C16.8607 34.7409 18.1639 35.2458 19.1179 35.7057C19.9305 36.1082 20.7212 36.5534 21.4867 37.0395C21.6775 37.1655 22.7962 37.9863 22.9699 38.1312C23.3326 38.4282 23.806 38.853 24.1489 39.1932C24.8131 39.852 25.6384 40.86 26.0398 41.661C26.1361 41.8536 26.2108 42.0417 26.3368 42.264C26.3782 42.3396 26.5627 42.795 26.5933 42.9273C26.623 43.0578 26.668 43.2486 26.6743 43.2558C26.6833 43.3215 26.7679 43.7112 26.7616 43.8624ZM49.3237 42.8364C48.4831 43.0299 46.2727 43.137 46.2727 43.137L45.9937 44.01C45.9937 44.01 47.098 43.9155 47.9017 43.9992C47.9017 43.9992 48.1627 43.9695 48.1924 44.2944C48.2023 44.5986 48.1672 44.9244 48.1672 44.9244C48.1672 44.9244 48.1492 45.1224 47.8702 45.1719C47.5687 45.2224 45.4897 45.3024 45.4897 45.3024L45.1531 46.4409C45.1531 46.4409 45.028 46.7037 45.3079 46.629C45.5689 46.5588 47.7451 46.1511 48.0286 46.2097C48.3328 46.2852 48.6676 46.6893 48.5713 47.0592C48.4543 47.5182 46.2826 48.9024 44.9596 48.8061C44.9596 48.8061 44.2639 48.8511 43.6762 47.9133C43.1299 47.0178 43.8832 45.3258 43.8832 45.3258C43.8832 45.3258 43.5376 44.5356 43.7887 44.2674C43.7887 44.2674 43.9372 44.1324 44.3737 44.1018L44.9056 43.0002C44.9056 43.0002 44.299 43.0416 43.9381 42.5952C43.6024 42.1722 43.5745 41.9778 43.8319 41.8608C44.1082 41.724 46.6336 41.2632 48.3724 41.3208C48.3724 41.3208 48.9754 41.2632 49.5001 42.3108C49.501 42.3108 49.7548 42.7347 49.3237 42.8364ZM42.7861 47.0727C42.5638 47.5965 41.9752 48.1563 41.2435 47.8089C40.5217 47.4597 39.3715 45.1071 39.3715 45.1071C39.3715 45.1071 38.935 44.2305 38.8513 44.253C38.8513 44.253 38.7577 44.082 38.7001 45.0405C38.6398 45.9945 38.7109 47.8575 38.3311 48.1491C37.9702 48.4434 37.5328 48.3264 37.3069 47.9835C37.0999 47.6451 37.0153 46.8423 37.1269 45.4311C37.2601 44.0163 37.5877 42.5124 38.0071 42.0444C38.4265 41.5791 38.7631 41.9166 38.8936 42.039C38.8936 42.039 39.4543 42.5475 40.3786 44.0388L40.5415 44.3151C40.5415 44.3151 41.3812 45.7245 41.4694 45.7209C41.4694 45.7209 41.5387 45.7857 41.599 45.7389C41.6872 45.7137 41.6512 45.2619 41.6512 45.2619C41.6512 45.2619 41.4775 43.7265 40.7116 41.1264C40.7116 41.1264 40.5946 40.8024 40.6738 40.4991C40.7521 40.1913 41.0608 40.3362 41.0608 40.3362C41.0608 40.3362 42.2488 40.9338 42.8248 42.867C43.3963 44.7993 43.012 46.5453 42.7861 47.0727ZM55.5688 45.9144C55.0288 46.8576 53.5015 48.8331 51.4738 48.3669C50.8033 49.9914 50.2408 51.6348 49.9195 54.0936C49.9195 54.0936 49.8493 54.5715 49.4515 54.4059C49.0582 54.2673 48.4093 53.6139 48.2788 52.7085C48.1384 51.5205 48.6676 49.509 49.7494 47.205C49.4344 46.692 49.2184 45.9594 49.402 44.9154C49.402 44.9154 49.6747 42.9777 51.6205 41.2308C51.6205 41.2308 51.8545 41.0283 51.9886 41.0913C52.1371 41.1543 52.0678 41.7843 51.9499 42.0903C51.8275 42.3963 50.9599 43.8966 50.9599 43.8966C50.9599 43.8966 50.4199 44.9091 50.572 45.7092C51.5926 44.1405 53.9128 40.9752 55.351 41.9724C55.8352 42.318 56.0575 43.0704 56.0575 43.8804C56.0575 44.5914 55.8865 45.3474 55.5688 45.9144ZM55.1494 43.4295C55.1494 43.4295 55.0693 42.8058 54.4591 43.4925C53.9344 44.0721 52.9876 45.1593 52.2271 46.6353C53.0254 46.5453 53.7967 46.1115 54.0307 45.891C54.4087 45.5545 55.2907 44.6427 55.1494 43.4295ZM66.7423 43.2864H63.0253C62.9517 42.0236 62.7957 40.7669 62.5582 39.5244C62.5462 39.4611 62.5125 39.404 62.4629 39.3629C62.4133 39.3218 62.3508 39.2994 62.2864 39.2994H61.4305C61.3933 39.2997 61.3566 39.3082 61.323 39.3242C61.2894 39.3402 61.2597 39.3634 61.2361 39.3922C61.2125 39.421 61.1955 39.4546 61.1863 39.4907C61.1771 39.5267 61.176 39.5644 61.183 39.6009C61.426 40.8258 61.579 42.0336 61.6555 43.2882H58.0789C58.0393 43.2881 58.0001 43.2958 57.9635 43.3109C57.9268 43.3259 57.8935 43.348 57.8655 43.3759C57.8374 43.4038 57.8151 43.437 57.7998 43.4735C57.7845 43.5101 57.7766 43.5493 57.7765 43.5888V44.361C57.7765 44.5284 57.9115 44.6634 58.0789 44.6634H61.7059C61.7086 44.8551 61.7104 45.0261 61.7104 45.1854C61.7104 46.2996 61.6627 47.2158 61.5493 48.2526C61.5449 48.292 61.549 48.3318 61.5615 48.3694C61.5739 48.407 61.5943 48.4415 61.6213 48.4704C61.6474 48.4997 61.6792 48.5231 61.7149 48.5392C61.7505 48.5553 61.7892 48.5638 61.8283 48.564H62.623C62.7778 48.564 62.9056 48.447 62.9218 48.2931C63.0298 47.2491 63.0766 46.3203 63.0766 45.1854C63.0766 45.0252 63.0748 44.8533 63.073 44.6634H66.7396C66.9052 44.6634 67.042 44.5284 67.042 44.3619V43.5888C67.0426 43.5492 67.0353 43.5098 67.0205 43.473C67.0057 43.4363 66.9836 43.4028 66.9557 43.3746C66.9278 43.3465 66.8946 43.3242 66.8579 43.309C66.8213 43.2939 66.782 43.2862 66.7423 43.2864Z" fill="#01147B"/>
<path d="M62.056 37.4823C60.1658 32.826 56.9444 28.8305 52.795 25.9956C48.5412 23.076 43.5004 21.5186 38.341 21.5298C34.1235 21.5252 29.9704 22.565 26.2525 24.5563C22.5347 26.5476 19.3677 29.4285 17.0344 32.9418C17.0085 32.98 16.9918 33.0238 16.9857 33.0695C16.9796 33.1153 16.9843 33.1619 16.9993 33.2055C17.0308 33.2955 17.0992 33.3639 17.1883 33.3945L17.8543 33.6186C17.9315 33.6447 18.0151 33.6447 18.0923 33.6187C18.1695 33.5927 18.2361 33.5421 18.2818 33.4746C20.4744 30.259 23.4021 27.6125 26.8219 25.7544C30.3612 23.8447 34.3194 22.8443 38.341 22.8429C43.1983 22.8429 47.8846 24.2739 51.895 26.9847C55.7951 29.6137 58.8475 33.3192 60.6808 37.6506C60.7348 37.7802 60.8617 37.8639 61.0021 37.8639H61.7977C61.8431 37.8638 61.8878 37.8524 61.9279 37.8309C61.9679 37.8094 62.002 37.7784 62.0272 37.7406C62.053 37.7033 62.0691 37.6602 62.0741 37.6151C62.0792 37.57 62.0729 37.5244 62.056 37.4823Z" fill="url(#paint0_radial_1_212)"/>
</g>
</g>
<rect x="0.5" y="1.1875" width="73" height="73" rx="36.5" stroke="#EFEFEF"/>
<defs>
<radialGradient id="paint0_radial_1_212" cx="0" cy="0" r="1" gradientUnits="userSpaceOnUse" gradientTransform="translate(62.2 37.6875) rotate(180) scale(45 45)">
<stop stop-color="#01147B"/>
<stop offset="0.025" stop-color="#011098"/>
<stop offset="0.064" stop-color="#010ABD"/>
<stop offset="0.103" stop-color="#0006DA"/>
<stop offset="0.142" stop-color="#0003EE"/>
<stop offset="0.179" stop-color="#0001FB"/>
<stop offset="0.216" stop-color="#0000FF"/>
<stop offset="1" stop-color="#00FFFF" stop-opacity="0"/>
</radialGradient>
<clipPath id="clip0_1_212">
<rect width="72" height="72" fill="white" transform="translate(1 1.6875)"/>
</clipPath>
</defs>
</svg>
